<?xml version="1.0" encoding="UTF-8"?>
<svg width="1024" height="1024" viewBox="0 0 1024 1024" xmlns="http://www.w3.org/2000/svg">
  <defs>
    <linearGradient id="grad" x1="0%" y1="0%" x2="100%" y2="0%">
      <stop offset="0%" stop-color="#22C7C7"/>
      <stop offset="100%" stop-color="#1E73D8"/>
    </linearGradient>
  </defs>

  <rect width="1024" height="1024" fill="white"/>

  <rect x="290" y="180" width="120" height="340" rx="60" fill="url(#grad)"/>
  <rect x="614" y="180" width="120" height="340" rx="60" fill="#1E73D8"/>

  <path d="M420 320
           C420 260, 500 250, 512 310
           C524 250, 604 260, 604 320
           C604 410, 512 500, 512 500
           C512 500, 420 410, 420 320Z"
        fill="none" stroke="#0B2B7A" stroke-width="18"/>

  <path d="M438 350 Q512 450 586 350" fill="none" stroke="#0B2B7A" stroke-width="12"/>
  <circle cx="438" cy="350" r="10" fill="#0B2B7A"/>
  <circle cx="586" cy="350" r="10" fill="#0B2B7A"/>

  <rect x="490" y="330" width="44" height="100" rx="6" fill="#22C7C7"/>
  <rect x="462" y="358" width="100" height="44" rx="6" fill="#22C7C7"/>

  <text x="512" y="700" text-anchor="middle"
        font-family="Arial, Helvetica, sans-serif"
        font-size="110" font-weight="700">
    <tspan fill="#081B67">Heal</tspan><tspan fill="#22C7C7">fy</tspan>
  </text>

  <text x="512" y="770" text-anchor="middle"
        font-family="Arial, Helvetica, sans-serif"
        font-size="34" fill="#5A6772">
    Your Health, Our Priority
  </text>
</svg>
